PathFileType	3	(X/Y/Z)	F:\ViconData\AntennenMessung\Messung1\Session1\ID06.trc
DataRate	CameraRate	NumFrames	NumMarkers	Units	OrigDataRate	OrigDataStartFrame	OrigNumFrames
120.0	120.0	4	70	mm	120.0	356	948	
Frame#	Time	Ashort			Along			Atop			A4			Bshort			Blong			Btop			B4			Cshort			Clong			Ctop			C4			Dshort			Dlong			Dtop			D4			Eshort			Elong			Etop			E4			Fshort			Flong			Ftop			F4			Gshort			Glong			Gtop			G4			Hshort			Hlong			Htop			H4			I1			I2			I3			I4			I5			WandAshort			WandAlong			WandAtop			WandA4			WandA15			WandBshort			WandB4			WandB5			WandBtop			WandBlong			WandCshort			WandClong			WandCtop			WandC4			WandC5			Acenter			Aantenna			Bcenter			Bantenna			Ccenter			Cantenna			Dcenter			Dantenna			Ecenter			Eantenna			Fcenter			Fantenna			Gcenter			Gantenna			Hcenter			Hantenna			Icenter			Iantenna			
		X1	Y1	Z1	X2	Y2	Z2	X3	Y3	Z3	X4	Y4	Z4	X5	Y5	Z5	X6	Y6	Z6	X7	Y7	Z7	X8	Y8	Z8	X9	Y9	Z9	X10	Y10	Z10	X11	Y11	Z11	X12	Y12	Z12	X13	Y13	Z13	X14	Y14	Z14	X15	Y15	Z15	X16	Y16	Z16	X17	Y17	Z17	X18	Y18	Z18	X19	Y19	Z19	X20	Y20	Z20	X21	Y21	Z21	X22	Y22	Z22	X23	Y23	Z23	X24	Y24	Z24	X25	Y25	Z25	X26	Y26	Z26	X27	Y27	Z27	X28	Y28	Z28	X29	Y29	Z29	X30	Y30	Z30	X31	Y31	Z31	X32	Y32	Z32	X33	Y33	Z33	X34	Y34	Z34	X35	Y35	Z35	X36	Y36	Z36	X37	Y37	Z37	X38	Y38	Z38	X39	Y39	Z39	X40	Y40	Z40	X41	Y41	Z41	X42	Y42	Z42	X43	Y43	Z43	X44	Y44	Z44	X45	Y45	Z45	X46	Y46	Z46	X47	Y47	Z47	X48	Y48	Z48	X49	Y49	Z49	X50	Y50	Z50	X51	Y51	Z51	X52	Y52	Z52	X53	Y53	Z53	X54	Y54	Z54	X55	Y55	Z55	X56	Y56	Z56	X57	Y57	Z57	X58	Y58	Z58	X59	Y59	Z59	X60	Y60	Z60	X61	Y61	Z61	X62	Y62	Z62	X63	Y63	Z63	X64	Y64	Z64	X65	Y65	Z65	X66	Y66	Z66	X67	Y67	Z67	X68	Y68	Z68	X69	Y69	Z69	X70	Y70	Z70	
356	2.9583333	-1038.2043	214.54774	-1644.1652	-1109.3263	203.73309	-1599.561	-1063.484	172.75175	-1625.9398	-1054.13	262.1619	-1634.9303	-1352.823	235.48911	1003.9863	-1281.3602	227.19658	1052.3881	-1322.9071	194.12819	1020.864	-1284.6439	287.72818	1052.9099	813.91119	187.55458	1209.5851	892.50092	178.30945	1179.3607	844.44635	145.29718	1198.3722	860.7547	292.27759	1167.2834	1115.8585	209.84174	-1401.7667	1056.3525	193.97997	-1460.1536	1095.047	162.29865	-1423.9197	1069.8641	238.71329	-1425.9543	-1204.4647	1685.9688	-1563.3195	-1129.1122	1688.2667	-1606.076	-1173.101	1724.4209	-1581.974	-1133.989	1581.0339	-1603.7792	-1239.7086	1699.1628	1119.4382	-1309.2843	1698.5973	1071.8601	-1270.4919	1736.2676	1096.8948	-1245.7866	1592.9512	1110.7006	988.84973	1664.2351	1162.3667	957.51031	1700.3105	1183.7998	922.69989	1662.1139	1215.0344	939.78223	1659.3923	1159.989	999.25	1668.4572	-1579.4645	1059.007	1670.1461	-1518.7115	1025.1176	1708.0117	-1551.1792	1059.3563	1672.172	-1585.6084	-232.50017	1722.7416	477.34354	-148.21834	1725.3633	477.58115	-195.56392	1761.0227	478.25186	-195.60802	1722.6348	509.02689	-195.66101	1725.8619	430.73358																																														-1068.6079	209.92459	-1625.0974	-1073.9321	248.54953	-1624.222	-1321.4775	231.85178	1025.2166	-1320.0105	270.56732	1029.6836	848.18597	183.52257	1196.4036	851.97827	222.28638	1194.407	1088.7069	202.60428	-1428.4077	1082.6831	240.89957	-1432.6719	-1171.8684	1686.9628	-1581.8151	-1170.5857	1647.9841	-1581.6498	-1270.9807	1698.9086	1098.0533	-1271.4906	1659.9307	1099.2622	953.14093	1705.3401	1186.7878	972.94678	1733.4645	1168.4098	1026.6495	1669.2314	-1551.608	1028.1892	1630.2643	-1552.0391	-194.40778	1723.9264	477.4509	-193.19318	1684.9543	476.60944
357	2.9666667	-1038.2106	214.54669	-1644.1776	-1109.2644	203.80489	-1599.5098	-1063.6964	172.51047	-1625.4652	-1054.1337	262.21146	-1634.9707	-1352.8778	235.23955	1003.9626	-1281.3927	227.23679	1052.3751	-1322.9492	194.15233	1020.8575	-1284.5105	287.81723	1052.7849	814.00427	187.46527	1209.5588	892.92004	178.96588	1178.7122	844.37793	145.46725	1198.2823	860.83319	292.2287	1167.3503	1115.8655	209.84106	-1401.7848	1056.3008	194.0733	-1460.2053	1095.0792	162.32193	-1423.9193	1069.8912	238.79689	-1425.9626	-1204.4685	1685.9656	-1563.3165	-1129.1078	1688.2817	-1606.0852	-1173.097	1724.4315	-1581.9825	-1133.7426	1581.0699	-1603.6783	-1239.7255	1699.2052	1119.4395	-1309.3192	1698.6552	1071.8853	-1270.4918	1736.278	1096.9032	-1244.89	1593.7246	1106.3318	988.85522	1664.2305	1162.3605	957.51373	1700.2788	1183.8315	922.1712	1662.1865	1214.8524	939.77643	1659.3995	1159.9948	999.2453	1668.5101	-1579.5237	1058.8618	1669.9496	-1518.7341	1025.1219	1708.0176	-1551.1782	1059.3494	1672.1749	-1585.6222	-232.53114	1722.7639	477.34067	-148.22928	1725.316	477.58054	-195.60667	1761.0389	478.36777	-195.62038	1722.6476	509.06223	-195.65332	1725.8607	430.74228																																														-1068.96	209.89804	-1624.8469	-1074.3961	248.51201	-1624.2086	-1321.6306	231.74142	1025.1243	-1320.2723	270.46906	1029.5204	847.75983	183.82971	1196.3643	851.18054	222.63094	1194.4244	1088.762	202.66632	-1428.3676	1082.7643	240.97029	-1432.5906	-1171.856	1686.9679	-1581.8247	-1170.5648	1647.9895	-1581.6606	-1270.9956	1698.9579	1098.0721	-1271.5219	1659.9806	1099.293	952.93634	1705.5435	1186.9674	972.92285	1733.7103	1168.8519	1026.5614	1669.1696	-1551.6699	1028.0055	1630.1995	-1552.1633	-194.48021	1723.9156	477.44891	-193.2977	1684.9456	476.48434
358	2.975	-1038.2264	214.53868	-1644.1676	-1109.3651	203.7981	-1599.5425	-1063.7573	172.42693	-1625.3512	-1054.1119	262.1622	-1634.9258	-1352.9368	235.20671	1003.9918	-1281.3304	227.1714	1052.4049	-1322.875	194.12004	1020.8744	-1284.6354	287.74167	1052.9392	813.98962	187.46042	1209.5156	892.88324	178.83206	1178.7411	844.40607	145.36385	1198.3246	860.84277	292.19815	1167.29	1115.7863	209.53233	-1401.6373	1056.3666	194.0793	-1460.2518	1095.0974	162.28383	-1423.9485	1069.8931	238.67598	-1425.9097	-1204.4658	1685.9634	-1563.3329	-1129.0969	1688.2703	-1606.1095	-1173.0957	1724.427	-1581.9818	-1133.7343	1581.0447	-1603.6854	-1239.6814	1699.1328	1119.428	-1309.3069	1698.6034	1071.8632	-1270.5371	1736.3329	1096.9158	-1244.9821	1593.8907	1106.5082	988.85059	1664.2305	1162.3765	957.50092	1700.2831	1183.8571	922.69421	1662.0461	1215.0079	939.72864	1659.3721	1159.9554	999.23956	1668.4923	-1579.5358	1058.838	1669.9463	-1518.746	1025.1088	1707.9971	-1551.1902	1059.3385	1672.1732	-1585.646	-232.52013	1722.7321	477.33508	-148.23245	1725.3397	477.57019	-195.60332	1761.0349	478.3736	-195.60358	1722.6294	509.02377	-195.6553	1725.8477	430.74719																																														-1069.0762	209.88095	-1624.8156	-1074.5591	248.48967	-1624.2637	-1321.579	231.68788	1025.1927	-1320.2432	270.41003	1029.6438	847.82269	183.76019	1196.318	851.27472	222.5542	1194.2909	1088.842	202.52505	-1428.2163	1082.8842	240.85234	-1432.2811	-1171.866	1686.9611	-1581.8354	-1170.5864	1647.9823	-1581.6831	-1271.0105	1698.8945	1098.0253	-1271.5033	1659.9147	1099.1805	953.13916	1705.2991	1186.8458	972.95367	1733.4493	1168.517	1026.5527	1669.1586	-1551.6766	1028.0015	1630.1886	-1552.1648	-194.45207	1723.9098	477.44125	-193.24368	1684.9407	476.46265
359	2.9833333	-1038.2159	214.52699	-1644.1674	-1109.3351	203.71405	-1599.582	-1063.6522	172.98032	-1625.6759	-1054.1456	262.15366	-1634.9397	-1352.7714	235.47495	1003.9584	-1281.3352	227.19275	1052.3492	-1322.9885	194.08533	1020.9058	-1284.639	287.77896	1052.9131	813.89362	187.45277	1209.5344	892.69562	179.17113	1178.7238	844.39972	145.38229	1198.3367	860.92004	292.159	1167.4027	1115.8492	209.83104	-1401.7737	1056.3452	194.08179	-1460.2577	1095.0262	162.23566	-1423.9019	1069.8652	238.68529	-1425.9401	-1204.4606	1685.9677	-1563.3267	-1129.0887	1688.2697	-1606.0901	-1173.0944	1724.4309	-1581.9941	-1133.9951	1581.0498	-1603.7939	-1239.6893	1699.1428	1119.425	-1309.1202	1698.3395	1071.7664	-1270.5342	1736.3391	1096.9203	-1244.9028	1594.0114	1106.3594	988.8606	1664.2605	1162.3767	957.2948	1700.5146	1183.8353	922.5979	1662.0499	1214.9189	939.8006	1659.3447	1160.0005	999.25427	1668.4845	-1579.5138	1058.9961	1670.1193	-1518.7186	1025.1271	1708.0116	-1551.191	1059.3451	1672.1709	-1585.6421	-232.51756	1722.7485	477.33914	-148.25645	1725.3142	477.58066	-195.61209	1761.0452	478.37991	-195.58151	1722.62	509.02771	-195.66724	1725.8535	430.74738																																														-1068.8243	209.87329	-1624.9785	-1074.2379	248.48885	-1624.2488	-1321.486	231.84775	1025.151	-1319.9452	270.57336	1029.5044	847.6637	183.90372	1196.3307	850.95209	222.71225	1194.3096	1088.7532	202.65938	-1428.4052	1082.8086	240.96667	-1432.6727	-1171.8547	1686.9634	-1581.826	-1170.5652	1647.9852	-1581.6512	-1270.8605	1698.7821	1098.0287	-1271.1991	1659.8005	1099.1792	953.10614	1705.3254	1186.6827	972.93433	1733.4514	1168.3312	1026.6449	1669.2339	-1551.6399	1028.1703	1630.2665	-1552.0909	-194.47853	1723.9067	477.44815	-193.28908	1684.9371	476.47049
